<mxfile host="app.diagrams.net" agent="Mozilla/5.0 (Windows NT 10.0; Win64; x64) AppleWebKit/537.36 (KHTML, like Gecko) Chrome/133.0.0.0 Safari/537.36 OPR/118.0.0.0 (Edition std-2)" version="27.0.6">
  <diagram name="Page-1" id="2YBvvXClWsGukQMizWep">
    <mxGraphModel grid="1" page="1" gridSize="10" guides="1" tooltips="1" connect="1" arrows="1" fold="1" pageScale="1" pageWidth="9999" pageHeight="9999" math="0" shadow="0">
      <root>
        <mxCell id="0" />
        <mxCell id="1" parent="0" />
        <mxCell id="rJFT_KHLRNkj6K3t_Fg7-46" style="edgeStyle=elbowEdgeStyle;rounded=0;orthogonalLoop=1;jettySize=auto;html=1;elbow=vertical;curved=0;" edge="1" parent="1">
          <mxGeometry relative="1" as="geometry">
            <mxPoint x="785" y="1010.0021739130435" as="sourcePoint" />
            <mxPoint x="1024.5000000000002" y="1010.0021739130435" as="targetPoint" />
          </mxGeometry>
        </mxCell>
        <mxCell id="rJFT_KHLRNkj6K3t_Fg7-40" style="edgeStyle=elbowEdgeStyle;rounded=0;orthogonalLoop=1;jettySize=auto;html=1;elbow=vertical;curved=0;" edge="1" parent="1">
          <mxGeometry relative="1" as="geometry">
            <mxPoint x="1024.6304347826085" y="960.0021739130435" as="sourcePoint" />
            <mxPoint x="1289.5" y="960.0021739130435" as="targetPoint" />
          </mxGeometry>
        </mxCell>
        <mxCell id="aM9ryv3xv72pqoxQDRHE-5" value="JanelaSelecaoInimigo" style="shape=umlLifeline;perimeter=lifelinePerimeter;whiteSpace=wrap;html=1;container=0;dropTarget=0;collapsible=0;recursiveResize=0;outlineConnect=0;portConstraint=eastwest;newEdgeStyle={&quot;edgeStyle&quot;:&quot;elbowEdgeStyle&quot;,&quot;elbow&quot;:&quot;vertical&quot;,&quot;curved&quot;:0,&quot;rounded&quot;:0};" vertex="1" parent="1">
          <mxGeometry x="960" y="850" width="130" height="280" as="geometry" />
        </mxCell>
        <mxCell id="aM9ryv3xv72pqoxQDRHE-6" value="" style="html=1;points=[];perimeter=orthogonalPerimeter;outlineConnect=0;targetShapes=umlLifeline;portConstraint=eastwest;newEdgeStyle={&quot;edgeStyle&quot;:&quot;elbowEdgeStyle&quot;,&quot;elbow&quot;:&quot;vertical&quot;,&quot;curved&quot;:0,&quot;rounded&quot;:0};" vertex="1" parent="aM9ryv3xv72pqoxQDRHE-5">
          <mxGeometry x="60" y="90" width="10" height="140" as="geometry" />
        </mxCell>
        <mxCell id="rJFT_KHLRNkj6K3t_Fg7-1" value=": InimigoController" style="shape=umlLifeline;perimeter=lifelinePerimeter;whiteSpace=wrap;html=1;container=0;dropTarget=0;collapsible=0;recursiveResize=0;outlineConnect=0;portConstraint=eastwest;newEdgeStyle={&quot;edgeStyle&quot;:&quot;elbowEdgeStyle&quot;,&quot;elbow&quot;:&quot;vertical&quot;,&quot;curved&quot;:0,&quot;rounded&quot;:0};" vertex="1" parent="1">
          <mxGeometry x="1250" y="850" width="110" height="300" as="geometry" />
        </mxCell>
        <mxCell id="rJFT_KHLRNkj6K3t_Fg7-2" value="" style="html=1;points=[];perimeter=orthogonalPerimeter;outlineConnect=0;targetShapes=umlLifeline;portConstraint=eastwest;newEdgeStyle={&quot;edgeStyle&quot;:&quot;elbowEdgeStyle&quot;,&quot;elbow&quot;:&quot;vertical&quot;,&quot;curved&quot;:0,&quot;rounded&quot;:0};" vertex="1" parent="rJFT_KHLRNkj6K3t_Fg7-1">
          <mxGeometry x="50" y="110" width="10" height="100" as="geometry" />
        </mxCell>
        <mxCell id="rJFT_KHLRNkj6K3t_Fg7-30" style="edgeStyle=orthogonalEdgeStyle;rounded=0;orthogonalLoop=1;jettySize=auto;html=1;curved=0;" edge="1" parent="1">
          <mxGeometry relative="1" as="geometry">
            <mxPoint x="780" y="930.0000000000002" as="sourcePoint" />
            <mxPoint x="1015" y="940" as="targetPoint" />
            <Array as="points">
              <mxPoint x="830" y="930" />
              <mxPoint x="830" y="940" />
              <mxPoint x="1015" y="940" />
            </Array>
          </mxGeometry>
        </mxCell>
        <mxCell id="rJFT_KHLRNkj6K3t_Fg7-33" value="1: abrirListaInimigos()" style="text;whiteSpace=wrap;html=1;" vertex="1" parent="1">
          <mxGeometry x="850" y="910" width="140" height="40" as="geometry" />
        </mxCell>
        <mxCell id="rJFT_KHLRNkj6K3t_Fg7-35" value="Menu" style="shape=umlLifeline;perimeter=lifelinePerimeter;whiteSpace=wrap;html=1;container=0;dropTarget=0;collapsible=0;recursiveResize=0;outlineConnect=0;portConstraint=eastwest;newEdgeStyle={&quot;edgeStyle&quot;:&quot;elbowEdgeStyle&quot;,&quot;elbow&quot;:&quot;vertical&quot;,&quot;curved&quot;:0,&quot;rounded&quot;:0};" vertex="1" parent="1">
          <mxGeometry x="730" y="850" width="100" height="300" as="geometry" />
        </mxCell>
        <mxCell id="rJFT_KHLRNkj6K3t_Fg7-36" value="" style="html=1;points=[];perimeter=orthogonalPerimeter;outlineConnect=0;targetShapes=umlLifeline;portConstraint=eastwest;newEdgeStyle={&quot;edgeStyle&quot;:&quot;elbowEdgeStyle&quot;,&quot;elbow&quot;:&quot;vertical&quot;,&quot;curved&quot;:0,&quot;rounded&quot;:0};" vertex="1" parent="rJFT_KHLRNkj6K3t_Fg7-35">
          <mxGeometry x="45" y="70" width="10" height="160" as="geometry" />
        </mxCell>
        <mxCell id="rJFT_KHLRNkj6K3t_Fg7-41" value="2:listarInimigos()" style="text;whiteSpace=wrap;html=1;" vertex="1" parent="1">
          <mxGeometry x="1100" y="930" width="120" height="40" as="geometry" />
        </mxCell>
        <mxCell id="rJFT_KHLRNkj6K3t_Fg7-45" value="" style="html=1;verticalAlign=bottom;endArrow=open;dashed=1;endSize=8;curved=0;rounded=0;" edge="1" parent="1">
          <mxGeometry relative="1" as="geometry">
            <mxPoint x="1290" y="999.57" as="sourcePoint" />
            <mxPoint x="1030" y="1000" as="targetPoint" />
          </mxGeometry>
        </mxCell>
        <mxCell id="rJFT_KHLRNkj6K3t_Fg7-47" value="3 : clicaInimigo(Inimigo)" style="text;whiteSpace=wrap;html=1;" vertex="1" parent="1">
          <mxGeometry x="840" y="990" width="140" height="40" as="geometry" />
        </mxCell>
        <mxCell id="rJFT_KHLRNkj6K3t_Fg7-48" style="edgeStyle=elbowEdgeStyle;rounded=0;orthogonalLoop=1;jettySize=auto;html=1;elbow=vertical;curved=0;" edge="1" parent="1" source="aM9ryv3xv72pqoxQDRHE-6">
          <mxGeometry relative="1" as="geometry">
            <mxPoint x="1040" y="1040" as="sourcePoint" />
            <mxPoint x="1290" y="1040" as="targetPoint" />
          </mxGeometry>
        </mxCell>
        <mxCell id="rJFT_KHLRNkj6K3t_Fg7-49" value="4: InimigoSelecionado(Inimigo)" style="text;whiteSpace=wrap;html=1;" vertex="1" parent="1">
          <mxGeometry x="1080" y="1010" width="180" height="30" as="geometry" />
        </mxCell>
        <mxCell id="rJFT_KHLRNkj6K3t_Fg7-53" value="umaBatalha:Batalha" style="shape=umlLifeline;perimeter=lifelinePerimeter;whiteSpace=wrap;html=1;container=0;dropTarget=0;collapsible=0;recursiveResize=0;outlineConnect=0;portConstraint=eastwest;newEdgeStyle={&quot;edgeStyle&quot;:&quot;elbowEdgeStyle&quot;,&quot;elbow&quot;:&quot;vertical&quot;,&quot;curved&quot;:0,&quot;rounded&quot;:0};" vertex="1" parent="1">
          <mxGeometry x="1660" y="850" width="130" height="300" as="geometry" />
        </mxCell>
        <mxCell id="rJFT_KHLRNkj6K3t_Fg7-55" style="edgeStyle=elbowEdgeStyle;rounded=0;orthogonalLoop=1;jettySize=auto;html=1;elbow=horizontal;curved=0;entryX=1;entryY=1;entryDx=0;entryDy=0;" edge="1" parent="1" target="rJFT_KHLRNkj6K3t_Fg7-56">
          <mxGeometry relative="1" as="geometry">
            <mxPoint x="1320" y="1060" as="sourcePoint" />
            <mxPoint x="1559.5" y="1060.004347826087" as="targetPoint" />
            <Array as="points">
              <mxPoint x="1320" y="1060" />
            </Array>
          </mxGeometry>
        </mxCell>
        <mxCell id="rJFT_KHLRNkj6K3t_Fg7-56" value="5 : buscarInimigo(inimigo)" style="text;whiteSpace=wrap;html=1;" vertex="1" parent="1">
          <mxGeometry x="1330" y="1030" width="160" height="30" as="geometry" />
        </mxCell>
        <mxCell id="rJFT_KHLRNkj6K3t_Fg7-57" value="" style="shape=umlDestroy;whiteSpace=wrap;html=1;strokeWidth=3;targetShapes=umlLifeline;" vertex="1" parent="1">
          <mxGeometry x="1010" y="1120" width="30" height="30" as="geometry" />
        </mxCell>
        <mxCell id="rJFT_KHLRNkj6K3t_Fg7-59" style="edgeStyle=elbowEdgeStyle;rounded=0;orthogonalLoop=1;jettySize=auto;html=1;elbow=vertical;curved=0;" edge="1" parent="1">
          <mxGeometry relative="1" as="geometry">
            <mxPoint x="1020" y="1080.004347826087" as="sourcePoint" />
            <mxPoint x="790" y="1080" as="targetPoint" />
          </mxGeometry>
        </mxCell>
        <mxCell id="rJFT_KHLRNkj6K3t_Fg7-60" value="7 : fecharListaInimigos()" style="text;whiteSpace=wrap;html=1;" vertex="1" parent="1">
          <mxGeometry x="840" y="1050" width="140" height="40" as="geometry" />
        </mxCell>
        <mxCell id="rJFT_KHLRNkj6K3t_Fg7-62" value=": Inimigo" style="shape=umlLifeline;perimeter=lifelinePerimeter;whiteSpace=wrap;html=1;container=0;dropTarget=0;collapsible=0;recursiveResize=0;outlineConnect=0;portConstraint=eastwest;newEdgeStyle={&quot;edgeStyle&quot;:&quot;elbowEdgeStyle&quot;,&quot;elbow&quot;:&quot;vertical&quot;,&quot;curved&quot;:0,&quot;rounded&quot;:0};" vertex="1" parent="1">
          <mxGeometry x="1440" y="850" width="130" height="300" as="geometry" />
        </mxCell>
        <mxCell id="rJFT_KHLRNkj6K3t_Fg7-63" value="" style="html=1;points=[];perimeter=orthogonalPerimeter;outlineConnect=0;targetShapes=umlLifeline;portConstraint=eastwest;newEdgeStyle={&quot;edgeStyle&quot;:&quot;elbowEdgeStyle&quot;,&quot;elbow&quot;:&quot;vertical&quot;,&quot;curved&quot;:0,&quot;rounded&quot;:0};" vertex="1" parent="rJFT_KHLRNkj6K3t_Fg7-62">
          <mxGeometry x="60" y="210" width="10" height="40" as="geometry" />
        </mxCell>
        <mxCell id="rJFT_KHLRNkj6K3t_Fg7-64" style="edgeStyle=elbowEdgeStyle;rounded=0;orthogonalLoop=1;jettySize=auto;html=1;elbow=vertical;curved=0;" edge="1" parent="1" source="rJFT_KHLRNkj6K3t_Fg7-63" target="rJFT_KHLRNkj6K3t_Fg7-53">
          <mxGeometry relative="1" as="geometry">
            <Array as="points">
              <mxPoint x="1630" y="1100" />
            </Array>
          </mxGeometry>
        </mxCell>
        <mxCell id="rJFT_KHLRNkj6K3t_Fg7-65" value="&lt;span style=&quot;color: rgb(255, 255, 255); font-family: Helvetica; font-size: 12px; font-style: normal; font-variant-ligatures: normal; font-variant-caps: normal; font-weight: 400; letter-spacing: normal; orphans: 2; text-align: left; text-indent: 0px; text-transform: none; widows: 2; word-spacing: 0px; -webkit-text-stroke-width: 0px; white-space: normal; background-color: rgb(27, 29, 30); text-decoration-thickness: initial; text-decoration-style: initial; text-decoration-color: initial; float: none; display: inline !important;&quot;&gt;6 : adicionarInimigo(batalha)&lt;/span&gt;" style="text;whiteSpace=wrap;html=1;" vertex="1" parent="1">
          <mxGeometry x="1530" y="1070" width="180" height="40" as="geometry" />
        </mxCell>
        <mxCell id="rJFT_KHLRNkj6K3t_Fg7-66" value="Usuario" style="shape=umlActor;verticalLabelPosition=bottom;verticalAlign=top;html=1;" vertex="1" parent="1">
          <mxGeometry x="570" y="830" width="30" height="60" as="geometry" />
        </mxCell>
        <mxCell id="rJFT_KHLRNkj6K3t_Fg7-70" value="" style="endArrow=none;dashed=1;endFill=0;endSize=12;html=1;rounded=0;startFill=0;" edge="1" parent="1">
          <mxGeometry width="160" relative="1" as="geometry">
            <mxPoint x="585" y="920" as="sourcePoint" />
            <mxPoint x="585" y="1160" as="targetPoint" />
            <Array as="points">
              <mxPoint x="585" y="1030" />
            </Array>
          </mxGeometry>
        </mxCell>
        <mxCell id="rJFT_KHLRNkj6K3t_Fg7-72" value="" style="endArrow=open;endFill=1;endSize=12;html=1;rounded=0;" edge="1" parent="1">
          <mxGeometry width="160" relative="1" as="geometry">
            <mxPoint x="590" y="920" as="sourcePoint" />
            <mxPoint x="770" y="920" as="targetPoint" />
          </mxGeometry>
        </mxCell>
        <mxCell id="rJFT_KHLRNkj6K3t_Fg7-73" value="Iniciar &quot;selecionar monstro&quot;" style="text;whiteSpace=wrap;html=1;" vertex="1" parent="1">
          <mxGeometry x="600" y="920" width="160" height="40" as="geometry" />
        </mxCell>
      </root>
    </mxGraphModel>
  </diagram>
</mxfile>
